<svg width="92" height="23" viewBox="0 0 92 23" fill="none" xmlns="http://www.w3.org/2000/svg">
<path d="M0.180195 22V0.999999H4.8002V22H0.180195ZM31.7983 22.63L29.4883 20.56C27.6283 21.76 25.5483 22.36 23.2483 22.36C20.0483 22.36 17.3883 21.31 15.2683 19.21C13.1683 17.11 12.1183 14.54 12.1183 11.5C12.1183 8.48 13.1783 5.92 15.2983 3.82C17.4383 1.7 20.1083 0.64 23.3083 0.64C26.5083 0.64 29.1583 1.69 31.2583 3.79C33.3783 5.89 34.4383 8.46 34.4383 11.5C34.4383 13.72 33.8183 15.73 32.5783 17.53L34.7383 19.36L31.7983 22.63ZM23.3083 18.1C24.2883 18.1 25.2083 17.91 26.0683 17.53L22.6483 14.62L25.5883 11.32L29.0383 14.44C29.4183 13.6 29.6083 12.62 29.6083 11.5C29.6083 9.66 29.0083 8.1 27.8083 6.82C26.6083 5.54 25.0883 4.9 23.2483 4.9C21.4083 4.9 19.8983 5.54 18.7183 6.82C17.5383 8.08 16.9483 9.64 16.9483 11.5C16.9483 13.34 17.5483 14.9 18.7483 16.18C19.9483 17.46 21.4683 18.1 23.3083 18.1ZM41.5366 22V0.999999H46.5166L52.0366 9.88L57.5566 0.999999H62.5366V22H57.9466V8.29L52.0366 17.26H51.9166L46.0666 8.38V22H41.5366ZM88.7615 19.21C86.6415 21.31 83.9815 22.36 80.7815 22.36C77.5815 22.36 74.9215 21.31 72.8015 19.21C70.7015 17.11 69.6515 14.54 69.6515 11.5C69.6515 8.48 70.7115 5.92 72.8315 3.82C74.9715 1.7 77.6415 0.64 80.8415 0.64C84.0415 0.64 86.6915 1.69 88.7915 3.79C90.9115 5.89 91.9715 8.46 91.9715 11.5C91.9715 14.52 90.9015 17.09 88.7615 19.21ZM76.2815 16.18C77.4815 17.46 79.0015 18.1 80.8415 18.1C82.6815 18.1 84.1915 17.47 85.3715 16.21C86.5515 14.93 87.1415 13.36 87.1415 11.5C87.1415 9.66 86.5415 8.1 85.3415 6.82C84.1415 5.54 82.6215 4.9 80.7815 4.9C78.9415 4.9 77.4315 5.54 76.2515 6.82C75.0715 8.08 74.4815 9.64 74.4815 11.5C74.4815 13.34 75.0815 14.9 76.2815 16.18Z" fill="white"/>
</svg>
